<?xml version="1.0" standalone="no"?>
<!DOCTYPE svg PUBLIC "-//W3C//DTD SVG 1.1//EN" "http://www.w3.org/Graphics/SVG/1.1/DTD/svg11.dtd" >
<!--
2013-9-30: Created.
-->
<svg>
<metadata>
Created by iconfont
</metadata>
<defs>

<font id="custom-icon" horiz-adv-x="1024" >
  <font-face
    font-family="custom-icon"
    font-weight="500"
    font-stretch="normal"
    units-per-em="1024"
    ascent="896"
    descent="-128"
  />
    <missing-glyph />
    
    <glyph glyph-name="toolsbar" unicode="&#58888;" d="M272 32C227.2 32 192 67.20000000000005 192 112v352C192 508.8 227.2 544 272 544s80-35.2 80-80v-352c0-44.8-35.2-80-80-80z m0 473.6c-22.4 0-41.6-19.2-41.6-41.6v-352c0-22.4 19.2-41.6 41.6-41.6s41.6 19.2 41.6 41.6v352c0 22.4-19.2 41.6-41.6 41.6zM528 32c-44.8 0-80 35.2-80 80v512C448 668.8 483.2 704 528 704S608 668.8 608 624v-512c0-44.8-35.2-80-80-80z m0 633.6c-22.4 0-41.6-19.2-41.6-41.6v-512c0-22.4 19.2-41.6 41.6-41.6s41.6 19.2 41.6 41.6v512c0 22.4-19.2 41.6-41.6 41.6zM784 32c-44.8 0-80 35.2-80 80v160c0 44.8 35.2 80 80 80s80-35.2 80-80v-160c0-44.8-35.2-80-80-80z m0 281.6c-22.4 0-41.6-19.2-41.6-41.6v-160c0-22.4 19.2-41.6 41.6-41.6s41.6 19.2 41.6 41.6v160c0 22.4-19.2 41.6-41.6 41.6z"  horiz-adv-x="1024" />

    
    <glyph glyph-name="dentifyingcode" unicode="&#59145;" d="M512-128c-153.6 0-448 230.4-448 448V736c0 12.8 6.4 19.2 19.2 19.2h25.6s102.4 0 204.8 44.8C416 832 486.4 883.2 486.4 883.2l12.8 12.8H512c6.4 0 6.4 0 12.8-6.4l12.8-12.8s70.4-44.8 172.8-89.6c102.4-38.4 204.8-44.8 204.8-44.8h25.6c12.8 0 19.2-6.4 19.2-19.2V320c0-217.6-294.4-448-448-448z m377.6 812.8c-38.4 0-121.6 12.8-204.8 44.8C601.6 761.6 537.6 800 512 819.2c-25.6-19.2-89.6-57.6-172.8-89.6-89.6-32-166.4-44.8-204.8-44.8V320c0-172.8 256-377.6 377.6-377.6 51.2 0 140.8 38.4 236.8 121.6 89.6 83.2 140.8 179.2 140.8 256V684.8z m-416-435.2c-6.4-6.4-12.8-12.8-25.6-12.8-6.4 0-19.2 6.4-25.6 12.8L326.4 352c-12.8 12.8-12.8 32 0 44.8 12.8 12.8 38.4 12.8 51.2 0L454.4 320l198.4 198.4c12.8 12.8 38.4 12.8 51.2 0 12.8-12.8 12.8-32 0-51.2l-230.4-217.6z"  horiz-adv-x="1024" />

    
    <glyph glyph-name="sub" unicode="&#59077;" d="M256 448l512 0c38.4 0 64-25.6 64-64l0 0c0-38.4-25.6-64-64-64L256 320C217.6 320 192 345.6 192 384l0 0C192 422.4 217.6 448 256 448z"  horiz-adv-x="1024" />

    
    <glyph glyph-name="qrcode" unicode="&#59065;" d="M437.812347 829.534216 109.789499 829.534216c-23.698748 0-42.97886-19.280112-42.97886-42.97886l0-328.056618c0-23.698748 19.280112-42.97886 42.97886-42.97886l328.021825 0c23.698748 0 42.97886 19.280112 42.97886 42.97886L480.790184 786.555355C480.791208 810.25308 461.510072 829.534216 437.812347 829.534216zM419.392836 476.918249 128.20901 476.918249 128.20901 768.135844l291.182802 0L419.391812 476.918249zM437.811324 351.251132 109.789499 351.251132c-23.698748 0-42.97886-19.280112-42.97886-42.97886l0-328.056618c0-23.698748 19.280112-42.97886 42.97886-42.97886l328.021825 0c23.698748 0 42.97886 19.280112 42.97886 42.97886L480.790184 308.272271C480.790184 331.97102 461.509049 351.251132 437.811324 351.251132zM419.391812-1.364835 128.20901-1.364835 128.20901 289.85276l291.182802 0L419.391812-1.364835zM928.183747 351.253178c-16.954137 0-30.699186-13.745049-30.699186-30.699186l0-321.91678L575.60155-1.362788c-16.954137 0-30.699186-13.745049-30.699186-30.699186s13.745049-30.699186 30.699186-30.699186L915.904073-62.76116c23.698748 0 42.97886 19.280112 42.97886 42.97886L958.882933 320.553992C958.882933 337.508129 945.137885 351.253178 928.183747 351.253178zM915.904073 829.535239 587.881225 829.535239c-23.698748 0-42.97886-19.280112-42.97886-42.97886l0-328.056618c0-23.698748 19.280112-42.97886 42.97886-42.97886L915.904073 415.520901c23.698748 0 42.97886 19.280112 42.97886 42.97886L958.882933 786.556379C958.882933 810.255127 939.602821 829.535239 915.904073 829.535239zM897.484561 476.919273 606.300736 476.919273 606.300736 768.136867 897.484561 768.136867 897.484561 476.919273zM575.60155 320.553992l63.694671 0 0-63.993476-63.694671 0 0 63.993476ZM704.083783 192.566016 704.083783 256.560516 831.855842 256.560516 831.855842 320.553992 703.492312 320.553992 703.492312 256.560516 639.297244 256.560516 639.297244 192.566016ZM575.60155 192.071759l63.694671 0 0-128.018675-63.694671 0 0 128.018675ZM767.969812 192.071759 767.969812 128.06191 705.107089 128.06191 705.107089 64.053084 767.969812 64.053084 768.971629 64.053084 831.812863 64.053084 831.812863 192.071759ZM223.299739 673.028743l101.003392 0 0-101.003392-101.003392 0 0 101.003392ZM223.297692 194.745658l101.003392 0 0-101.003392-101.003392 0 0 101.003392ZM701.390441 673.028743l101.003392 0 0-101.003392-101.003392 0 0 101.003392Z"  horiz-adv-x="1024" />

    
    <glyph glyph-name="plus" unicode="&#58910;" d="M540.372796 648.382872c0 15.476071-12.896725 28.372796-28.372796 28.372796-15.476071 0-28.372796-12.896725-28.372796-28.372796l0-236.010076L247.617128 412.372796c-15.476071 0-28.372796-12.896725-28.372796-28.372796 0-15.476071 12.896725-28.372796 28.372796-28.372796l236.010076 0 0-236.010076c0-15.476071 12.896725-28.372796 28.372796-28.372796 15.476071 0 28.372796 12.896725 28.372796 28.372796L540.372796 355.627204l236.010076 0c15.476071 0 28.372796 12.896725 28.372796 28.372796 0 15.476071-12.896725 28.372796-28.372796 28.372796L540.372796 412.372796 540.372796 648.382872z"  horiz-adv-x="1024" />

    
    <glyph glyph-name="edit" unicode="&#58889;" d="M850.622159 866.875096c-31.331849 33.126756-82.334296 33.126756-113.660501 0L672.525631 798.397707l151.494653-160.582075 64.441672 68.454812c31.676155 33.143689 31.676155 87.019116 0 120.168449l-37.839797 40.436203z m-208.683321-100.514783l-421.684577-447.919568V308.98644h36.411774v-36.417418h36.417418v-36.417418h36.417418v-36.411774h36.411774V147.68188699999996l427.882085 458.090707-151.855892 160.587719zM183.836843 279.48336500000005l-15.663103-16.379936-57.166089-219.238276 223.21755 69.555462 12.378084 13.484379h-17.102414v36.411774h-36.417418v36.417418h-36.417418v36.411774h-36.411774v36.417418H183.836843v6.919987z m-43.704289-338.672958v-68.810407h758.528762v68.810407H140.132554z"  horiz-adv-x="1024" />

    
    <glyph glyph-name="copyright" unicode="&#59064;" d="M512 880C238.066 880 16 657.934 16 384s222.066-496 496-496 496 222.066 496 496S785.934 880 512 880z m234.268-693.506c-3.184-3.734-79.552-91.462-219.702-91.462-169.384 0-288.968 126.52-288.968 291.134 0 162.606 124.008 286.802 287.524 286.802 133.914 0 203.93-74.63 206.844-77.808a24 24 0 0 0 2.476-29.246l-44.76-69.31c-8.098-12.534-25.548-14.702-36.468-4.59-0.466 0.428-53.058 47.76-123.76 47.76-92.232 0-147.832-67.15-147.832-152.164 0-79.204 51.028-159.384 148.554-159.384 77.394 0 130.56 56.676 131.088 57.25 10.264 11.13 28.118 10.066 37.016-2.106l49.094-67.144a24.002 24.002 0 0 0-1.106-29.732z"  horiz-adv-x="1024" />

    
    <glyph glyph-name="scan" unicode="&#59349;" d="M312-128H177.5C79.6-128 0-48.4 0 49.5V184c0 15.2 12.3 27.5 27.5 27.5S55 199.2 55 184v-134.5C55-18 110-73 177.5-73H312c15.2 0 27.5-12.3 27.5-27.5S327.2-128 312-128z m712 177.5V184c0 15.2-12.3 27.5-27.5 27.5S969 199.2 969 184v-134.5C969-18 914-73 846.5-73H712c-15.2 0-27.5-12.3-27.5-27.5s12.3-27.5 27.5-27.5h134.5c97.9 0 177.5 79.6 177.5 177.5z m0 534.5V718.5C1024 816.4 944.4 896 846.5 896H712c-15.2 0-27.5-12.3-27.5-27.5S696.8 841 712 841h134.5C914 841 969 786 969 718.5V584c0-15.2 12.3-27.5 27.5-27.5s27.5 12.3 27.5 27.5z m-969 0V718.5C55 786 110 841 177.5 841H312c15.2 0 27.5 12.3 27.5 27.5S327.2 896 312 896H177.5C79.6 896 0 816.4 0 718.5V584c0-15.2 12.3-27.5 27.5-27.5S55 568.8 55 584z m969-200c0 15.2-12.3 27.5-27.5 27.5h-969C12.3 411.5 0 399.2 0 384s12.3-27.5 27.5-27.5h969c15.2 0 27.5 12.3 27.5 27.5z"  horiz-adv-x="1024" />

    
    <glyph glyph-name="yonghuming" unicode="&#58945;" d="M501.674667 896c137.813333 0 249.557333-109.866667 249.557333-245.418667 0-135.594667-111.786667-245.461333-249.6-245.461333-137.728 0-249.557333 109.909333-249.557333 245.461333C252.074667 786.090667 363.776 896 501.674667 896zM501.674667 896c137.813333 0 249.557333-109.866667 249.557333-245.418667 0-135.594667-111.786667-245.461333-249.6-245.461333-137.728 0-249.557333 109.909333-249.557333 245.461333C252.074667 786.090667 363.776 896 501.674667 896zM408.021333 323.285333h208c178.005333 0 322.304-141.909333 322.304-317.013333v-20.48c0-68.949333-144.341333-71.594667-322.304-71.594667H408.021333c-178.005333 0-322.346667 0.085333-322.346666 71.637334v20.437333c0 175.104 144.341333 317.013333 322.346666 317.013333z"  horiz-adv-x="1024" />

    
    <glyph glyph-name="ionc" unicode="&#58887;" d="M512 299.853707c-164.342056 0-298.073147 133.685942-298.073147 298.027998S347.657944 896 512 896s298.073147-133.77624 298.073147-298.118295-133.708516-298.027998-298.073147-298.027998z m0 547.385463c-137.455876 0-249.289742-111.856441-249.289742-249.357465 0-137.455876 111.833866-249.267168 249.289742-249.267168 137.478451 0 249.312317 111.811292 249.312317 249.267168 0.022574 137.501025-111.833866 249.357466-249.312317 249.357465zM939.71826-127.864553a24.380415 24.380415 0 0 0-24.380415 24.380415c0 112.262781-44.990895 216.534203-126.687859 293.513106a24.335266 24.335266 0 0 0-1.015851 34.426048 24.335266 24.335266 0 0 0 34.471198 1.061c91.562003-86.324728 141.993342-203.170124 141.993342-329.000154a24.380415 24.380415 0 0 0-24.380415-24.380415zM84.28174-127.864553a24.380415 24.380415 0 0 0-24.380415 24.380415c0 249.289742 202.786358 452.098675 452.076101 452.098675a24.380415 24.380415 0 0 0 0-48.76083c-222.403563 0-403.337845-180.956857-403.337846-403.337845a24.335266 24.335266 0 0 0-24.35784-24.380415z"  horiz-adv-x="1024" />

    
    <glyph glyph-name="age" unicode="&#58983;" d="M512.9-63.8C265-63.8 64.1 137 64.1 384.6S265 833.1 512.9 833.1s448.9-200.8 448.9-448.5-201-448.4-448.9-448.4z m-37.4 373.7h224.4c20.7 0 37.4 16.7 37.4 37.3 0 20.6-16.7 37.4-37.4 37.4H512.8V571.5c0 20.6-16.7 37.4-37.4 37.4S438 592.2 438 571.5v-224.2c0.1-20.7 16.9-37.4 37.5-37.4z"  horiz-adv-x="1024" />

    
    <glyph glyph-name="xiugainicheng" unicode="&#58885;" d="M366.6 294.70000000000005v-120.6c13.1 10.5 29.5 22.9 45 36.2 17.2 14.8 34.1 21.3 58.7 16.6 26.5-5.1 55.6-5.1 82.1 0 24.5 4.7 41.8-1.3 58.7-16.5 15.2-13.7 30.3-27.3 46.6-42.1v127c41.8-12.8 82.1-20.9 118.8-37.3 60.9-27.1 88.6-82.4 106.9-143 3.5-11.7 3.9-24.2 6.5-36.2 6.7-31.4-4.9-57.1-32.3-69.5-41-18.6-83.3-36.4-127-46.4-160.2-36.5-320.6-32-479.3 10.7-30.1 8.1-59 21.9-86.8 36.3-25.3 13.1-36.2 36-32.5 65.6 6.9 55.7 26.4 105.7 64.6 147.5 21.3 23.3 47.4 37.9 78.7 44.9 29.7 6.9 58.6 17.1 91.3 26.8zM663 465c-1.8-31.3-8-57.7-30.3-79.5-7.6-7.4-7.2-24.3-8.1-37-3.1-46.7-52.2-104.6-98.7-111.2-15.8-2.3-35.2-0.5-48.8 6.9-43.4 23.6-81.2 52.4-79.5 110.7 0.4 14.1-11.1 28.6-16.9 43-8.4 20.8-16.6 41.7-25.9 64.9-18.5-2.8-37.2 2.3-43.9 27.3-7.6 28.5-19.8 56.8 6.7 83.7 5.2 5.3 3.4 19.6 1.6 29.1-12.3 65 4.2 122.3 47.2 171.3 47.7 54.3 109.2 62.4 178.4 56.3C665.3 820 725.3 696.8 702.5 598c-2.7-11.6-2.7-19.4 7.6-31.5 21.2-24.8 9.5-55.2-1-82.8-7.7-20.3-24.2-23.4-46.1-18.7z"  horiz-adv-x="1024" />

    
    <glyph glyph-name="CompanyPages" unicode="&#59118;" d="M84.48 458.28v-524.8H64V-128h83.22V412.79L473.679 526.1v-647.76h232.92V-60.1h-48.01V540.12l-122.84 72.35-135.09-46.75v87.71L727.08 801.28v-925.38h232.96V-62.15h-47.97V819.831L787.18 896 340.52 690.57v-145.29l-256.04-87z m100.51-80.66v-94.13l241.27 69.12V459.5l-241.27-81.88z m0-133.12v-92.79l241.27 44.82v108.7L184.99 244.5z m0-135.09v-92.199l241.27 20.52V146.59l-241.27-37.18z m-0.67-136.9v-92.2h241.31V-10.87l-241.31-16.62z"  horiz-adv-x="1024" />

    
    <glyph glyph-name="Email" unicode="&#58886;" d="M571.3 254.7c-34.8-27.3-83.7-27.3-118.5 0L64.4 559.8v-431.6c0-53 42.9-95.9 95.9-95.9h703.3c53 0 95.9 42.9 95.9 95.9V559.8L571.3 254.7zM571.3 318.7l388.3 305.1v16c0 53-42.9 95.9-95.9 95.9H160.3c-53 0-95.9-42.9-95.9-95.9v-16l388.3-305.1c34.8-27.4 83.8-27.4 118.6 0z"  horiz-adv-x="1024" />

    
    <glyph glyph-name="Verifiedgender" unicode="&#59710;" d="M393.039862 751.932751A147.787185 147.787185 0 1 0 245.355069 895.999659a147.411744 147.411744 0 0 0 147.718924-144.066908zM0.192171 294.850538a253.422598 253.422598 0 0 0 171.883664 249.872975 242.330027 242.330027 0 0 0 317.418204-234.138589v-181.337948a28.601769 28.601769 0 0 0-28.670032-28.533508h-55.462858v-215.366544a13.44761 13.44761 0 0 0-13.652396-13.276955h-283.287214a13.44761 13.44761 0 0 0-13.652396 13.276955V100.747599H28.862202a28.601769 28.601769 0 0 0-28.670031 28.533508V294.952931zM787.048007 849.786299a145.466278 145.466278 0 1 0-147.718924-146.763256 147.377613 147.377613 0 0 0 147.718924 146.763256z m160.927616-475.069246l74.678605-296.25699a49.558197 49.558197 0 0 0-8.601009-41.981117 48.943839 48.943839 0 0 0-38.124316-19.215747l-65.565631-0.34131a7520.763574 7520.763574 0 0 1-35.974063-111.198765 47.783386 47.783386 0 0 0-45.462478-33.653155H727.182251a48.124695 48.124695 0 0 0-45.87205 33.857941c-12.628466 40.240437-26.485648 81.675458-35.83754 109.867656-28.908948 0-65.599762 0.921537-65.599762 0.921537a49.012101 49.012101 0 0 0-38.090184 19.488795 50.036031 50.036031 0 0 0-8.60101 42.254165l75.088178 298.919208a173.521951 173.521951 0 0 0 339.637478-2.73048z m0 0"  horiz-adv-x="1024" />

    
    <glyph glyph-name="name" unicode="&#59162;" d="M1145.018 197.818h-307.2c-18.618 0-27.927 18.618-27.927 37.237s18.618 37.236 27.927 37.236h307.2c18.618 0 27.927-18.618 27.927-37.236s-9.309-37.237-27.927-37.237m-986.763-46.545c-18.619 0-27.928 18.618-27.928 37.236 18.618 102.4 93.091 176.873 186.182 204.8-46.545 27.927-83.782 74.473-83.782 139.636 0 83.782 74.473 158.255 158.255 158.255s158.254-65.164 158.254-158.255c0-55.854-37.236-111.709-83.781-139.636 93.09-27.927 167.563-102.4 186.181-204.8 0-18.618-9.309-27.927-27.927-37.236H614.4m223.418 288.582h204.8c18.618 0 27.927-18.619 27.927-37.237s-18.618-37.236-27.927-37.236h-204.8c-18.618 0-27.927 18.618-27.927 37.236s9.309 37.237 27.927 37.237m0 158.254h204.8c18.618 0 27.927-18.618 27.927-37.236s-18.618-37.237-27.927-37.237h-204.8c-18.618 0-27.927 18.619-27.927 37.237s9.309 37.236 27.927 37.236M1154.328 896H148.944C65.164 896 0 830.836 0 747.055v-660.946c0-83.782 65.164-148.945 148.945-148.945h1005.382c83.782 0 148.946 65.163 148.946 148.945V747.055C1303.273 830.836 1238.109 896 1154.327 896"  horiz-adv-x="1303" />

    
    <glyph glyph-name="icon" unicode="&#58884;" d="M511.999488 472.47826c-122.240065 0-221.325781-99.099019-221.325781-221.324758s99.085716-221.325781 221.325781-221.325781 221.324758 99.100042 221.324758 221.325781S634.239554 472.47826 511.999488 472.47826zM511.999488 85.15891c-91.669816 0-165.994592 74.325799-165.994592 165.994592s74.324776 165.993568 165.994592 165.993568c91.669816 0 165.994592-74.324776 165.994592-165.993568S603.669304 85.15891 511.999488 85.15891zM843.988672 583.140639l-82.997296 0-27.666106 55.332213c-16.291035 32.17684-24.774243 55.331189-55.330166 55.331189L346.004897 693.804041c-30.555923 0-40.660048-26.396183-55.331189-55.331189l-27.666106-55.332213-82.997296 0c-61.112869 0-110.662379-49.548486-110.662379-110.662379l0-442.650539c0-61.112869 49.549509-110.662379 110.662379-110.662379l663.977343 0c61.112869 0 110.662379 49.549509 110.662379 110.662379L954.650027 472.47826C954.650027 533.591129 905.100518 583.140639 843.988672 583.140639zM899.318838 29.826697c0-30.5549-24.774243-55.331189-55.330166-55.331189L180.011328-25.504492c-30.555923 0-55.331189 24.77629-55.331189 55.331189L124.680139 472.47826c0 30.555923 24.775266 55.331189 55.331189 55.331189L290.673707 527.809449l27.666106 55.331189c19.560498 32.177863 24.774243 55.332213 55.331189 55.332213l276.655947 0c30.555923 0 35.770691-23.153326 55.332213-55.332213l27.66406-55.331189 110.664426 0c30.555923 0 55.330166-24.775266 55.330166-55.331189L899.317815 29.826697z"  horiz-adv-x="1024" />

    
    <glyph glyph-name="Tarrow" unicode="&#58880;" d="M349.866667 256l166.4 166.4L682.666667 256a41.258667 41.258667 0 0 1 59.733333 0 41.258667 41.258667 0 0 1 0 59.733333l-196.266667 196.266667a41.258667 41.258667 0 0 1-59.733333 0l-196.266667-196.266667A42.24 42.24 0 1 1 349.866667 256z"  horiz-adv-x="1024" />

    
    <glyph glyph-name="Larrow" unicode="&#58881;" d="M640 221.866667l-166.4 166.4L640 554.666667a41.258667 41.258667 0 0 1 0 59.733333 41.258667 41.258667 0 0 1-59.733333 0l-196.266667-196.266667a41.258667 41.258667 0 0 1 0-59.733333l196.266667-196.266667A42.24 42.24 0 1 1 640 221.866667z"  horiz-adv-x="1024" />

    
    <glyph glyph-name="arrow-down" unicode="&#58882;" d="M674.133333 512l-166.4-166.4L341.333333 512a41.258667 41.258667 0 0 1-59.733333 0 41.258667 41.258667 0 0 1 0-59.733333l196.266667-196.266667a41.258667 41.258667 0 0 1 59.733333 0l196.266667 196.266667A42.24 42.24 0 1 1 674.133333 512z"  horiz-adv-x="1024" />

    
    <glyph glyph-name="Right" unicode="&#58883;" d="M384 546.133333l166.4-166.4L384 213.33333300000004a41.258667 41.258667 0 0 1 0-59.733333 41.258667 41.258667 0 0 1 59.733333 0l196.266667 196.266667a41.258667 41.258667 0 0 1 0 59.733333l-196.266667 196.266667A42.24 42.24 0 1 1 384 546.133333z"  horiz-adv-x="1024" />

    
    <glyph glyph-name="eye" unicode="&#58894;" d="M941.677 504.29c9.338 14.006 6.225 32.681-6.225 43.575-14.006 10.894-32.681 7.781-43.575-6.225-1.557-1.556-174.3-205.426-379.728-205.426-199.2 0-379.727 205.426-381.283 206.982-10.895 12.45-31.125 14.006-43.576 3.113-12.45-10.894-14.006-31.125-3.113-43.576 3.113-4.668 40.463-46.687 99.6-93.375l-79.37-82.482c-12.45-12.45-10.893-32.681 1.557-43.575 3.113-6.225 10.894-9.338 18.676-9.338 7.78 0 15.562 3.113 21.787 9.338l85.594 88.706c40.463-28.013 88.707-54.47 141.62-73.144l-32.682-110.495c-4.668-17.118 4.67-34.237 21.788-38.906h9.337c14.006 0 26.457 9.338 29.569 23.344l32.681 110.495c24.9-4.669 51.357-7.782 77.813-7.782s52.913 3.113 77.814 7.782l32.68-108.939c3.114-14.006 17.12-23.343 29.57-23.343 3.113 0 6.225 0 7.782 1.556 17.118 4.67 26.456 21.787 21.788 38.906L649.099 300.42c52.914 18.676 101.157 45.132 141.62 73.144l84.038-87.15c6.225-6.225 14.006-9.338 21.787-9.338 7.781 0 15.563 3.113 21.787 9.337 12.45 12.451 12.45 31.125 1.557 43.576l-79.37 82.481c63.808 46.689 101.16 91.82 101.16 91.82z"  horiz-adv-x="1024" />

    
    <glyph glyph-name="lock" unicode="&#59303;" d="M804.571429 554.666667h-48.761905V652.190476c0 134.582857-109.226667 243.809524-243.809524 243.809524S268.190476 786.773333 268.190476 652.190476v-97.523809H219.428571C165.790476 554.666667 121.904762 510.780952 121.904762 457.142857v-487.619047c0-53.638095 43.885714-97.52381 97.523809-97.52381h585.142858c53.638095 0 97.52381 43.885714 97.523809 97.52381V457.142857c0 53.638095-43.885714 97.52381-97.523809 97.52381z m-292.571429-438.857143c-53.638095 0-97.52381 43.885714-97.52381 97.523809s43.885714 97.52381 97.52381 97.52381 97.52381-43.885714 97.52381-97.52381-43.885714-97.52381-97.52381-97.523809z m151.161905 438.857143H360.838095V652.190476c0 83.382857 67.779048 151.161905 151.161905 151.161905 83.382857 0 151.161905-67.779048 151.161905-151.161905v-97.523809z"  horiz-adv-x="1024" />

    
    <glyph glyph-name="user" unicode="&#61739;" d="M512 384c141.4 0 256 114.6 256 256S653.4 896 512 896 256 781.4 256 640s114.6-256 256-256z m179.2-64h-33.4c-44.4-20.4-93.8-32-145.8-32s-101.2 11.6-145.8 32h-33.4C184.4 320 64 199.6 64 51.2V-32c0-53 43-96 96-96h704c53 0 96 43 96 96v83.2c0 148.4-120.4 268.8-268.8 268.8z"  horiz-adv-x="1024" />

    
    <glyph glyph-name="person" unicode="&#58908;" d="M770.475755 245.424288s-47.237973 76.469899-131.124898 111.798039c0 0-3.835474 1.707841-10.836803 4.241957 56.556354 38.786824 93.762299 104.636985 93.762299 179.378566 0 119.299023-94.869119 215.986562-211.924808 215.986561-117.054666 0-211.924808-96.687539-211.924809-215.986561 0-74.379126 36.846561-139.949766 92.940119-178.81031-17.932328-7.106788-35.926088-16.343258-53.632137-28.172204-0.002048-0.001024-127.011951-80.381141-138.693459-232.09023 0 0-4.025917-31.857168 5.012943-47.21852 0 0 12.184235-16.751788 32.361943-13.955557 0 0 29.0036 1.807158 30.867071 37.300143 0 0-0.80375 36.332571 13.10778 75.595501 0 0 12.264098 36.591614 35.394692 66.233094 0 0 29.957861 43.319564 85.322412 70.877438 0 0 59.566577 32.574912 131.64196 24.581438 0 0 50.340346-2.312957 102.096725-33.107332 0 0 71.131361-33.027469 106.847553-133.828979 0 0 10.936119-33.163646 11.36308-64.807845 0 0-4.775401-39.949958 34.407666-43.11274 0 0 34.416881-2.568928 34.032924 43.30523 0 0 1.787704 84.03334-51.022253 161.792311zM358.929144 540.786536c0 85.212856 67.77097 154.292351 151.367111 154.292351 83.592046 0 151.366087-69.079495 151.366087-154.292351 0-85.26917-67.774041-154.349689-151.366087-154.349689-83.596141 0-151.367111 69.080519-151.367111 154.349689z"  horiz-adv-x="1024" />

    
    <glyph glyph-name="manage" unicode="&#58912;" d="M359.944 831.924H189.987c-68.57 0-125.998-56.888-125.998-125.46v-169.956c0-68.57 57.427-123.117 125.998-123.117h292.535V706.464c0 68.571-54.007 125.46-122.578 125.46z m61.18-357.134H189.986c-34.286 0-63.576 27.433-63.576 61.718V706.464c0 34.286 29.29 63.038 63.576 63.038h169.956c34.286 0 61.18-28.752 61.18-63.038V474.79zM836.65 831.924H666.693c-68.57 0-125.843-56.888-125.843-125.46v-293.073h295.8c68.57 0 122.732 54.547 122.732 123.117V706.464c0 68.571-54.161 125.46-122.732 125.46z m60.31-295.416c0-34.285-26.025-61.718-60.31-61.718H602.248V706.464c0 34.286 30.16 63.038 64.445 63.038H836.65c34.286 0 60.31-28.752 60.31-63.038v-169.956zM63.99 229.758v-169.956c0-68.57 57.426-123.271 125.997-123.271h169.956c68.57 0 122.579 54.7 122.579 123.271v295.26H189.987c-68.57 0-125.998-56.733-125.998-125.304z m357.133-169.957c0-34.286-26.894-60.85-61.18-60.85H189.987c-34.286 0-63.576 26.564-63.576 60.85V229.758c0 34.286 29.29 63.907 63.576 63.907h231.136V59.8zM836.65 355.063h-295.8v-295.26c0-68.571 57.272-123.272 125.843-123.272H836.65c68.57 0 122.732 54.7 122.732 123.271V229.758c0.001 68.57-54.16 125.305-122.731 125.305zM896.96 59.8c0-34.286-26.025-60.85-60.31-60.85H666.693c-34.286 0-64.445 26.564-64.445 60.85V293.665H836.65c34.286 0 60.31-29.621 60.31-63.907v-169.957z"  horiz-adv-x="1024" />

    
    <glyph glyph-name="home" unicode="&#58893;" d="M922.24 364.79999999999995c-8.32 0-16.64 3.2-22.4 9.6L568.32 705.92c-26.24 26.24-69.12 26.24-95.36 0L142.08 374.4c-12.8-12.8-32.64-12.8-45.44 0s-12.8 32.64 0 45.44l331.52 331.52c51.2 51.2 134.4 51.2 186.24 0l331.52-331.52c12.8-12.8 12.8-32.64 0-45.44-7.04-6.4-15.36-9.6-23.68-9.6zM723.84-42.879999999999995H310.4c-80 0-144.64 65.28-144.64 144.64V469.76c0 17.92 14.08 32 32 32s32-14.08 32-32v-368c0-44.8 36.48-80.64 80.64-80.64h413.44c44.8 0 80.64 36.48 80.64 80.64V309.76c0 17.92 14.08 32 32 32s32-14.08 32-32v-208c0-80-64.64-144.64-144.64-144.64z"  horiz-adv-x="1024" />

    
    <glyph glyph-name="hammer" unicode="&#59434;" d="M1142.610672 508.123167l-45.259631 45.25963c-12.499898 12.499898-32.759733 12.499898-45.25963 0l-22.619816-22.619815-57.799528 57.799528c11.259908 42.619652 0.719994 89.799267-32.699733 123.218994l-90.499261 90.499261c-124.95898 124.95898-327.577326 124.95898-452.556305 0l181.018522-90.499261v-37.499694c0-33.939723 13.47989-66.499457 37.499694-90.499261l98.279197-98.279198c33.419727-33.419727 80.599342-43.959641 123.218994-32.699733l57.799529-57.799528-22.619816-22.619815c-12.499898-12.499898-12.499898-32.759733 0-45.259631l45.259631-45.25963c12.499898-12.499898 32.759733-12.499898 45.25963 0l181.018522 181.018522c12.459898 12.479898 12.459898 32.739733-0.039999 45.239631z m-573.435319 30.399751c-7.39994 7.39994-13.679888 15.579873-19.699839 23.899805L39.279679 86.086612c-51.139582-47.75961-52.519571-128.378952-3.059975-177.858548s130.098938-48.099607 177.858548 3.059975l476.256112 510.135835c-7.919935 5.819952-15.799871 11.739904-22.879813 18.819847l-98.279198 98.279197z"  horiz-adv-x="1152" />

    


  </font>
</defs>
</svg>
